<svg viewBox="0 0 24 24" xmlns="http://www.w3.org/2000/svg"><path d="m12 2c.7 0 1.2.6 1.2 1.2s-.3 1-.8 1.1v1.4c1.4.1 2.6.6 3.6 1.5l1-1c0-.1 0-.3 0-.5 0-.7.6-1.2 1.2-1.2s1.2.6 1.2 1.2-.6 1.2-1.2 1.2-.3 0-.5 0l-1 1c.8 1 1.4 2.2 1.5 3.6h1.4c.2-.4.6-.8 1.1-.8s1.2.6 1.2 1.2-.6 1.2-1.2 1.2-1-.3-1.1-.8h-1.4c-.1 1.4-.6 2.6-1.5 3.6l1 1h.5c.7 0 1.2.6 1.2 1.2s-.6 1.2-1.2 1.2-1.2-.6-1.2-1.2 0-.3 0-.5l-1-1c-1 .8-2.2 1.4-3.6 1.5v1.4c.4.2.8.6.8 1.1s-.6 1.2-1.2 1.2-1.2-.6-1.2-1.2.3-1 .8-1.1v-1.4c-1.4-.1-2.6-.6-3.6-1.5l-1 1v.5c0 .7-.6 1.2-1.2 1.2s-1.2-.6-1.2-1.2.6-1.2 1.2-1.2.3 0 .5 0l1-1c-.8-1-1.4-2.2-1.5-3.6h-1.4c-.2.4-.6.8-1.1.8s-1.2-.6-1.2-1.2.6-1.2 1.2-1.2 1 .3 1.1.8h1.4c.1-1.4.6-2.6 1.5-3.6l-1-1c-.1 0-.3 0-.5 0-.7 0-1.2-.6-1.2-1.2s.6-1.2 1.2-1.2 1.2.6 1.2 1.2 0 .3 0 .5l1 1c1-.8 2.2-1.4 3.6-1.5v-1.4c-.4-.2-.8-.6-.8-1.1s.6-1.2 1.2-1.3zm-.5 8c.6 0 1-.4 1-1s-.4-1-1-1-1 .4-1 1 .4 1 1 1zm-1 3c0 .6-.4 1-1 1s-1-.4-1-1 .4-1 1-1 1 .4 1 1zm4.5 2c.6 0 1-.4 1-1s-.4-1-1-1-1 .4-1 1 .4 1 1 1z" fill="currentColor" fill-rule="evenodd"/></svg>