<svg fill="none" height="16" viewBox="0 0 16 16" xmlns="http://www.w3.org/2000/svg" xmlns:xlink="http://www.w3.org/1999/xlink"><clipPath id="a"><path d="m0 0h16v16h-16z"/></clipPath><g clip-path="url(#a)" fill="currentColor"><path d="m8 6.45703c1.50152 0 2.7188-1.21722 2.7188-2.71875 0-1.50152-1.21728-2.71875-2.7188-2.71875s-2.71875 1.21723-2.71875 2.71875c0 1.50153 1.21723 2.71875 2.71875 2.71875z"/><path d="m13.5 6.45703c.9492 0 1.7188-.76951 1.7188-1.71875s-.7696-1.71875-1.7188-1.71875-1.7188.76951-1.7188 1.71875.7696 1.71875 1.7188 1.71875z"/><path d="m2.5 6.45703c.94924 0 1.71875-.76951 1.71875-1.71875s-.76951-1.71875-1.71875-1.71875-1.71875.76951-1.71875 1.71875.76951 1.71875 1.71875 1.71875z"/><path d="m4.19344 8.00075c-.67656-.55431-1.28928-.48093-2.07156-.48093-1.170005 0-2.12188.94625-2.12188 2.10906v3.41282c0 .505.412188.9156.919062.9156 2.188318 0 1.924688.0396 1.924688-.0944 0-2.4183-.28644-4.19174 1.34969-5.86215z"/><path d="m8.74415 7.53199c-1.36637-.11397-2.55403.00131-3.57843.84688-1.71428 1.37312-1.38438 3.22193-1.38438 5.48373 0 .5984.48688 1.0944 1.09438 1.0944 6.59628 0 6.85888.2128 7.24998-.6534.1283-.293.0931-.1999.0931-3.0022 0-2.22585-1.9272-3.76941-3.47465-3.76941z"/><path d="m13.8782 7.51974c-.7866 0-1.3959-.07263-2.0716.48094 1.6239 1.658 1.3497 3.31042 1.3497 5.86222 0 .1348-.2188.0943 1.8919.0943.525 0 .9519-.4253.9519-.9481v-3.3803c0-1.16281-.9519-2.10906-2.1219-2.10906z"/></g></svg>