<svg fill="none" height="17" viewBox="0 0 17 17"  xmlns="http://www.w3.org/2000/svg"><path d="m11.6016 4.39661c-.8431-.67461-1.86669-1.20911-3.1016-1.20911-2.93401 0-5.3125 2.37848-5.3125 5.3125 0 2.934 2.37849 5.3125 5.3125 5.3125 2.3056 0 4.2698-1.4695 5.0041-3.5235.1317-.36844.5032-.61543.8859-.53433l.6929.14691c.3827.0811.6305.45862.5131.83182-.9486 3.0162-3.7657 5.2041-7.096 5.2041-4.10762 0-7.4375-3.3299-7.4375-7.4375 0-4.10762 3.32988-7.4375 7.4375-7.4375 1.9716 0 3.5074.8985 4.6121 1.82368l1.262-1.26205c.2026-.20258.5073-.26318.772-.15355.2647.10964.4372.36793.4372.65442v3.89583c0 .3912-.3171.70834-.7083.70834h-3.8958c-.2865 0-.5448-.17258-.6545-.43727-.1095-.26468-.049-.56935.1536-.77194z" fill="currentColor"/></svg>