<svg fill="none" height="17" viewBox="0 0 17 17" xmlns="http://www.w3.org/2000/svg"><path d="m14.3438 3.18798c-2.9538 0-5.48786-1.98687-5.51442-2.00812-.0938-.07411-.20984-.11443-.32938-.11443s-.23558.04032-.32937.11443c-.02657.02125-2.55 2.00812-5.51438 2.00812-.1409 0-.27602.05598-.37565.1556-.09963.09963-.1556.23476-.1556.37566v4.78124c0 3.56472 1.43969 5.31252 6.15719 7.38972.06849.0308.14272.0467.21781.0467s.14932-.0159.21781-.0467c4.71749-2.0772 6.15719-3.825 6.15719-7.38972v-4.78124c0-.1409-.056-.27603-.1556-.37566-.0996-.09962-.2348-.1556-.3756-.1556zm-2.8104 3.56469-3.71871 3.71873c-.04939.0498-.10815.0893-.17288.1163-.06474.027-.13418.0409-.20431.0409s-.13957-.0139-.20431-.0409c-.06473-.027-.12349-.0665-.17288-.1163l-1.59375-1.59373c-.10003-.10003-.15623-.23571-.15623-.37719 0-.14147.0562-.27715.15623-.37718.10004-.10004.23572-.15624.37719-.15624s.27715.0562.37719.15624l1.21656 1.22187 3.3416-3.34687c.1-.10004.2357-.15624.3771-.15624.1415 0 .2772.0562.3772.15624.1001.10003.1563.23571.1563.37718 0 .14148-.0562.27716-.1563.37719z" fill="currentColor"/></svg>