<svg fill="none" height="18" viewBox="0 0 18 18" xmlns="http://www.w3.org/2000/svg"><g fill="currentColor"><path d="m8.05591 5.61889c0 .01318-.00074.02674-.0022.03992.0044.04686.09559.18714.39514.30542v-.73571c-.11793.04285-.22047.09485-.29152.16077-.07103.06628-.10142.13475-.10142.2296z"/><path d="m8.17969 9.10986c.00367.02528.00513.04797.00367.07032.02269.02453.09375.08312.26587.14173v-.44496c-.15344.09118-.25488.17798-.26954.23291z"/><path d="m8.38184 11.7202c.0139.0128.03587.0293.06702.0484v-.1084c-.03078.0234-.05275.0439-.06702.06z"/><path d="m9.19922 6.90723v.8119c.39953-.22558.47535-.41712.47608-.41931.00806-.05274.00073-.03846.03003-.08313-.00037-.00037.00733-.01869-.01649-.05896-.01682-.02893-.11498-.15272-.48962-.2505z"/><path d="m9.19922 10.5598c.17689-.0699.27283-.1307.32154-.1699-.05676-.0418-.16663-.0963-.32154-.1428z"/><path d="m13.6612 9.00038 2.8477-1.64428-2.3302-4.03638-2.8477 1.64428v-3.28822h-4.66095v3.28822l-2.84765-1.64428-2.33021 4.03638 2.84728 1.64392v.00037l-2.84728 1.64391 2.33021 4.0364 2.84765-1.6439v3.2878h4.66095v-3.2878l2.8477 1.6439 2.3302-4.0364-2.8473-1.64392zm-3.267-1.48827c-.0553.18676-.2882.64416-1.19529 1.03674v.92322c.53065.11243 1.07339.38928 1.10819.87053.0432.5965-.69143.8855-1.10819 1.0129v.657c.45594.1417.72877.4028.75697.7346.03004.3563-.21277.6753-.75697.9932v.8309c0 .2069-.16771.375-.37499.375s-.375-.1681-.375-.375v-.4688c-.03552.0147-.06591.029-.1029.0436-.04577.0183-.09265.0267-.1388.0267-.14904 0-.29003-.0893-.34827-.2365-.0771-.1923.01721-.4105.20946-.4871.1465-.0582.2688-.112.3805-.1641v-.7013c-.66047-.2281-.82637-.5694-.83442-.8364-.01135-.379.29058-.7075.83442-.9334v-.7134c-.44459-.10585-.7425-.27687-.90181-.51968-.10034-.15272-.12671-.31092-.11609-.43397-.03663-.55921.58319-.92359 1.01788-1.10962v-1.28503c-1.07612-.29517-1.1446-.96094-1.14312-1.13342 0-.30322.11865-.57311.34277-.78039.21074-.19447.49969-.31641.80035-.39258v-.27393c0-.00951.00476-.01795.0055-.02748-.19044-.12231-.31751-.3347-.31751-.57751 0-.37867.30833-.68666.687-.68666s.68701.30799.68701.68666c0 .24281-.12707.4552-.31751.57751.00073.00953.0055.01795.0055.02748v.16407c.34094-.02015.61121-.00294.6753.0022.20612.0161.36032.19627.34422.40282-.0033.04102-.0168.07764-.0315.11389.0165.02636.0264.05273.0194.0769-.0124.04249-.0644.06703-.134.07508-.0703.05347-.15821.08532-.25634.0791-.16993-.01319-.39038-.01464-.61707.00147v1.0503c.60353.12048.98511.3446 1.15981.68298.1322.25636.1051.52184.0355.69142z"/></g></svg>