<?xml version="1.0" encoding="UTF-8"?>
<svg width="28px" height="21px" viewBox="0 0 28 21" version="1.1" xmlns="http://www.w3.org/2000/svg" xmlns:xlink="http://www.w3.org/1999/xlink">
    <title>Group 11</title>
    <defs>
        <polygon id="path-1" points="0 0 2.83656592 0 2.83656592 1.37494629 0 1.37494629"></polygon>
        <polygon id="path-3" points="0 0 27.4997314 0 27.4997314 5.49986572 0 5.49986572"></polygon>
    </defs>
    <g id="Mockups---Post-Types" stroke="none" stroke-width="1" fill="none" fill-rule="evenodd">
        <g id="Available-Homes-Index" transform="translate(-157.000000, -1514.000000)">
            <g id="Group-12" transform="translate(157.000000, 1513.500000)">
                <g id="Group-11" transform="translate(0.000000, 1.272956)">
                    <path d="M6.875,2.74994629 C6.875,3.50941895 6.25936523,4.12489258 5.50005371,4.12489258 C4.74074219,4.12489258 4.12505371,3.50925781 4.12505371,2.74994629 C4.12505371,1.99063477 4.74074219,1.375 5.50005371,1.375 C6.25936523,1.375 6.875,1.99047363 6.875,2.74994629 L6.875,2.74994629 Z M8.16336426,3.43744629 C7.85807129,4.62349121 6.78143555,5.49989258 5.50005371,5.49989258 C3.98126953,5.49989258 2.75010742,4.26873047 2.75010742,2.74994629 C2.75010742,1.23116211 3.98126953,0 5.50005371,0 C6.78143555,0 7.85807129,0.876401367 8.16336426,2.06244629 L26.8125,2.06244629 C27.1920752,2.06244629 27.5,2.37020996 27.5,2.74994629 C27.5,3.12968262 27.1920752,3.43744629 26.8125,3.43744629 L8.16336426,3.43744629 Z" id="Fill-1" fill="currentColor"></path>
                    <g id="Group-5" transform="translate(0.000000, 2.062484)">
                        <mask id="mask-2" fill="white">
                            <use xlink:href="#path-1"></use>
                        </mask>
                        <g id="Clip-4"></g>
                        <path d="M0.687483887,1.37494629 L2.83656592,1.37494629 C2.77995459,1.15526855 2.74993018,0.924848633 2.74993018,0.687446289 C2.74993018,0.450097656 2.77995459,0.219677734 2.83656592,0 L0.687483887,0 C0.307747559,0 -1.61132812e-05,0.307709961 -1.61132812e-05,0.687446289 C-1.61132812e-05,1.06718262 0.307747559,1.37494629 0.687483887,1.37494629" id="Fill-3" fill="currentColor" mask="url(#mask-2)"></path>
                    </g>
                    <g id="Group-8" transform="translate(0.000000, 13.750021)">
                        <mask id="mask-4" fill="white">
                            <use xlink:href="#path-3"></use>
                        </mask>
                        <g id="Clip-7"></g>
                        <path d="M13.75,4.12489258 C14.5094727,4.12489258 15.1249463,3.50936523 15.1249463,2.74994629 C15.1249463,1.99047363 14.5094727,1.37494629 13.75,1.37494629 C12.9905273,1.37494629 12.3750537,1.99047363 12.3750537,2.74994629 C12.3750537,3.50936523 12.9905273,4.12489258 13.75,4.12489258 L13.75,4.12489258 Z M16.4133105,2.06244629 C16.1080176,0.876401367 15.0312207,0 13.75,0 C12.4687793,0 11.3918213,0.876401367 11.0866895,2.06244629 L0.6875,2.06244629 C0.307763672,2.06244629 0,2.37031738 0,2.74994629 C0,3.12952148 0.307763672,3.43739258 0.6875,3.43739258 L11.0865283,3.43739258 C11.3918213,4.6234375 12.4686182,5.49989258 13.7498389,5.49989258 C15.0311133,5.49989258 16.1080176,4.6234375 16.4131494,3.43739258 L26.8122314,3.43739258 C27.1918066,3.43739258 27.4997314,3.12952148 27.4997314,2.74994629 C27.4997314,2.37031738 27.1918066,2.06244629 26.8122314,2.06244629 L16.4133105,2.06244629 Z" id="Fill-6" fill="currentColor" mask="url(#mask-4)"></path>
                    </g>
                    <path d="M21.9999731,10.9999141 C22.7594458,10.9999141 23.3749194,10.3843867 23.3749194,9.62496777 C23.3749194,8.86549512 22.7592847,8.24996777 21.9999731,8.24996777 C21.2405005,8.24996777 20.6250269,8.86549512 20.6250269,9.62496777 C20.6250269,10.3843867 21.2405005,10.9999141 21.9999731,10.9999141 L21.9999731,10.9999141 Z M24.6632837,8.93746777 C24.3579907,7.75142285 23.2811938,6.87502148 21.9999731,6.87502148 C20.7187524,6.87502148 19.6417944,7.75142285 19.3366626,8.93746777 L0.687473145,8.93746777 C0.307736816,8.93746777 2.68554722e-05,9.24533887 2.68554722e-05,9.62496777 C2.68554722e-05,10.004543 0.307736816,10.3124141 0.687473145,10.3124141 L19.3366626,10.3124141 C19.6419556,11.498459 20.7187524,12.3748604 21.9999731,12.3748604 C23.2811938,12.3748604 24.3581519,11.498459 24.6632837,10.3124141 L26.8123657,10.3124141 C27.1919409,10.3124141 27.4998657,10.004543 27.4998657,9.62496777 C27.4998657,9.24533887 27.1919409,8.93746777 26.8123657,8.93746777 L24.6632837,8.93746777 Z" id="Fill-9" fill="currentColor"></path>
                </g>
            </g>
        </g>
    </g>
</svg>