<svg fill="none" height="94" viewBox="0 0 94 94" width="94" xmlns="http://www.w3.org/2000/svg" xmlns:xlink="http://www.w3.org/1999/xlink"><filter id="a" color-interpolation-filters="sRGB" filterUnits="userSpaceOnUse" height="94" width="94" x="0" y="0"><feFlood flood-opacity="0" result="BackgroundImageFix"/><feColorMatrix in="SourceAlpha" result="hardAlpha" type="matrix" values="0 0 0 0 0 0 0 0 0 0 0 0 0 0 0 0 0 0 127 0"/><feOffset dy="1"/><feGaussianBlur stdDeviation="6"/><feComposite in2="hardAlpha" operator="out"/><feColorMatrix type="matrix" values="0 0 0 0 0 0 0 0 0 0 0 0 0 0 0 0 0 0 0.25 0"/><feBlend in2="BackgroundImageFix" mode="normal" result="effect1_dropShadow_2491_2100"/><feBlend in="SourceGraphic" in2="effect1_dropShadow_2491_2100" mode="normal" result="shape"/></filter><g filter="url(#a)"><circle cx="47" cy="46" fill="#fff" r="35"/></g><path clip-rule="evenodd" d="m42.9078 59.2239c.3072.3088.728.4716 1.1321.4716.4042 0 .8241-.1628 1.1311-.4716l12.0124-12.0833c.3069-.3088.4688-.7154.4688-1.1386 0-.4225-.1619-.8291-.4688-1.1389l-12.0124-12.083c-.6307-.6345-1.6324-.6345-2.2632 0-.6307.6344-.6307 1.6421 0 2.2766l10.8803 10.9453-10.8803 10.9452c-.6141.6345-.6141 1.6589 0 2.2767z" fill="#003c71" fill-rule="evenodd" stroke="#003c71"/></svg>