<svg xmlns="http://www.w3.org/2000/svg" width="34" height="48" xmlns:v="https://vecta.io/nano"><path d="M32.286 11.947c-.171-.64-.518-1.323-.774-1.92C28.44 2.645 21.729 0 16.31 0 9.056 0 1.067 4.864 0 14.89v2.048c0 .085.029.853.071 1.238.598 4.778 4.368 9.856 7.184 14.635L16.543 48l5.71-9.813c.511-.939 1.105-1.878 1.617-2.774.341-.597.993-1.194 1.291-1.749 3.029-5.546 7.905-11.136 7.905-16.64v-2.261c0-.597-.74-2.687-.781-2.816zM16.443 22.23c-2.132 0-4.466-1.066-5.618-4.011-.172-.469-.158-1.408-.158-1.494v-1.323c0-3.754 3.187-5.461 5.96-5.461 3.414 0 6.054 2.731 6.054 6.145s-2.824 6.144-6.238 6.144z" fill="#509E2F"/></svg>