<svg viewBox="0 0 1440 210" xmlns="http://www.w3.org/2000/svg"><path d="m114.1 88c-27-14.7-87.3-64.8-114.1-88v201.2h1440v-159c-20.8 6.4-75.1 23-125.8 37.7-63.3 18.4-188.2 46.7-231.8 56.1s-194.5 33.2-246.1 40c-41.3 5.4-126.2 11.2-163.5 13.5-16.3.9-64.7 2.5-127.6 1.8s-117.2-7.2-136.5-10.3c-39.8-6.3-131.1-23-177.4-39.5-57.9-20.7-83.5-35-117.2-53.5z" fill="#d7e7fb"/><path d="m164.8 139.2c-61.4-19.4-135.5-77.8-164.8-104.6v171.6h1440v-110c-20.5 5.4-84.6 18.4-114.1 24.3l-262.3 42.7c-50.2 6.3-167.1 20.4-233.6 26.5-83.1 7.6-141.5 8.5-200.8 10.3s-159.9-3.6-168.9-3.6-99.3-9.4-160.8-20.2c-49.2-8.6-110.3-28.1-134.7-36.8z" fill="#87a7ce"/><path d="m175.5 171.1c-68.9-16.6-145.8-50-175.5-68.3v107h1440v-71.9c-123.1 18.7-391.5 44.3-510.3 54.8-86.1 6-293.8 16.9-435.6 12.6-177.3-5.4-233.6-13.6-318.6-34.2z" fill="#003c71"/></svg>