<?xml version="1.0" encoding="UTF-8"?>
<svg xmlns="http://www.w3.org/2000/svg" fill="none" viewBox="0 0 1440 210">
  <path d="m114.086 88.0349c-26.9494-14.7323-87.2862-64.8284-114.086-88.0349v201.223h1440v-159.0022c-20.81 6.438-75.1 22.9969-125.76 37.7293-63.34 18.4155-188.2 46.7119-231.77 56.1449-43.57 9.432-194.485 33.237-246.138 39.975-41.323 5.39-126.213 11.229-163.494 13.475-16.319.898-64.678 2.515-127.56 1.796-62.882-.718-117.231-7.186-136.544-10.33-39.826-6.289-131.065-22.997-177.418-39.526-57.941-20.662-83.543-35.035-117.23-53.4501z" fill="#d7e7fb"></path>
  <path d="m164.841 139.239c-61.445-19.404-135.496-77.8543-164.841-104.654v171.578h1440v-110.0434c-20.48 5.3894-84.59 18.4154-114.09 24.2544l-262.3 42.67c-50.16 6.288-167.091 20.392-233.566 26.5-83.095 7.636-141.485 8.534-200.774 10.331s-159.9-3.593-168.883-3.593-99.264-9.433-160.799-20.212c-49.227-8.624-110.343-28.148-134.747-36.831z" fill="#87a7ce"></path>
  <path d="m175.391 171.129c-68.808-16.618-145.7095-50.006-175.391-68.272v106.9h1439.1v-71.865c-123.04 18.685-391.25 44.317-509.98 54.797-86.046 5.989-293.577 16.888-435.328 12.576-177.19-5.389-233.456-13.619-318.401-34.136z" fill="#003c71"></path>
</svg>
