<svg fill="none" height="216" viewBox="0 0 1449 216" width="1449" xmlns="http://www.w3.org/2000/svg" xmlns:xlink="http://www.w3.org/1999/xlink"><clipPath id="a"><path d="m0 0h1449v216h-1449z" transform="matrix(-1 0 0 -1 1449 216)"/></clipPath><g clip-path="url(#a)"><path d="m1122 93.7614c124.8 4.8001 271.33-63.9999 329-98.99993v-11.00007l-1450.99999036-.0002-.00000813 93 37.99999849-8 376-46.9999 196 28 241 37c38.333.3334 146.2 2.2001 271 7.0001z" fill="#fff"/><path d="m1448.55.0133057v214.3816943c-119.66 9.064-313.04-23.116-394.77-40.339l-125.55-29.46-198.971-48.9497c-54.108-15.3306-139.616-24.8297-152.546-26.2661l-.195-.0216c-12.237-1.3598-65.719-8.1583-133.252-5.4389-54.026 2.1755-119.806 10.5755-145.942 14.5036-27.497 4.3813-96.449 16.1352-152.288 28.1007-55.8388 11.965-119.9569 37.014-145.03599463 48.043l.0000105-120.1078c32.63308413-7.705 51.21578413-9.518 95.17978413-15.8633 43.9642-6.3453 161.3522-15.41005 193.0792-14.05033 31.727 1.35971 79.317 4.98562 111.043 8.61153 25.381 2.9007 75.842 11.1799 97.899 14.9568 23.267 4.3813 79.408 14.7756 117.842 21.3022 48.043 8.1583 97.899 14.9569 139.144 21.3022s122.374 11.7842 146.396 14.0503c24.021 2.2662 158.177 8.6116 210.297 3.1727 52.13-5.4388 109.24-14.0503 167.25-29.9136 46.41-12.6907 132.95-43.964 170.42-58.0143943z" fill="#f2f8ff"/><path d="m1296.71 103.352c38.44-4.3515 116.64-20.5473 152.29-28.5545v124.6405c-89.74 9.518-119.65 3.172-215.74-6.346-76.87-7.614-177.37-27.949-218.01-37.165l-133.703-33.086c-21-6.044-72.518-20.305-110.59-29.0076-47.59-10.8777-101.525-19.4892-109.684-20.8489-8.158-1.3597-104.697-12.2374-128.719-14.5036s-116.482-8.1583-153.648-9.0648c-37.165-.9064-106.057 2.2662-131.892 4.9856-25.834 2.7195-75.237 9.0648-122.827 19.036-38.0719 7.977-98.6547 27.4963-124.187007 36.2593l.00000297-33.9931c73.24320403-20.6676 158.63300403-33.0863 192.17300403-36.7122 35.201-4.2303 117.388-12.6 164.525-12.2374 58.921.4532 93.82 3.6259 135.065 8.1583 32.995 3.6259 95.935 15.41 123.28 20.8489l118.748 21.7554c20.547 3.777 76.688 13.5971 136.878 22.6621s121.468 14.352 144.581 15.863c33.39 1.511 109.5 4.079 146.85 2.266 46.68-2.266 86.57-9.518 134.61-14.956z" fill="#d7e7fb"/></g></svg>