<?xml version="1.0" encoding="UTF-8"?> <svg xmlns="http://www.w3.org/2000/svg" fill="none" height="29" viewBox="0 0 189 29" width="189"><g fill="#ffd479"><path d="m14.5 0 3.2555 10.0193h10.5348l-8.5229 6.1922 3.2555 10.0192-8.5229-6.1922-8.52289 6.1922 3.25546-10.0192-8.522889-6.1922h10.534819z"></path><path d="m54.5 0 3.2555 10.0193h10.5348l-8.5229 6.1922 3.2555 10.0192-8.5229-6.1922-8.5229 6.1922 3.2555-10.0192-8.5229-6.1922h10.5348z"></path><path d="m94.5 0 3.2555 10.0193h10.5345l-8.5226 6.1922 3.2556 10.0192-8.523-6.1922-8.5229 6.1922 3.2555-10.0192-8.5229-6.1922h10.5348z"></path><path d="m134.5 0 3.255 10.0193h10.535l-8.523 6.1922 3.256 10.0192-8.523-6.1922-8.523 6.1922 3.256-10.0192-8.523-6.1922h10.535z"></path><path d="m174.5 0 3.255 10.0193h10.535l-8.523 6.1922 3.256 10.0192-8.523-6.1922-8.523 6.1922 3.256-10.0192-8.523-6.1922h10.535z"></path></g></svg> 