<svg fill="none" height="22" viewBox="0 0 22 22" width="22" xmlns="http://www.w3.org/2000/svg"><g fill="currentColor"><path d="m8.25 1.375c-4.54988 0-8.25 3.08413-8.25 6.875 0 2.0034 1.023 3.8624 2.82837 5.1824l-.69299 1.386c-.12926.2571-.08388.5692.11412.7782.132.1403.31487.2159.5005.2159.09075 0 .18287-.0179.27087-.055l2.431-1.0409c1.13988.3452 2.35538.4497 3.57501.3795.37949-.0192.671-.3437.65037-.7232-.02063-.3809-.38087-.6917-.72325-.649-1.1385.0577-2.26875-.0427-3.31925-.3933-.1595-.0522-.33275-.044-.48812.0206l-.94188.4043.12375-.2489c.15813-.3162.0495-.7026-.25163-.8896-1.71737-1.0725-2.70187-2.66338-2.70187-4.367 0-3.03325 3.08413-5.5 6.875-5.5 3.7909 0 6.875 2.46675 6.875 5.5 0 .20625-.0096.40013-.044.594-.0674.374.1829.7315.5555.7975.3795.07013.7301-.1815.7975-.5555.0481-.27363.066-.54725.066-.836 0-3.79087-3.7001-6.875-8.25-6.875z"/><path d="m19.6694 17.8626c1.4699-1.0395 2.3306-2.5382 2.3306-4.1126 0-3.0333-3.0841-5.5-6.875-5.5s-6.875 2.4667-6.875 5.5c0 3.3591 3.74 6.0706 8.118 5.4051l3.2986 1.4149c.0867.0358.1802.055.2709.055.1856 0 .3685-.0756.5005-.2172.1994-.2091.2447-.5198.1155-.7783zm-1.2334-.8428c-.3162.1815-.4359.5774-.2736.9033l.3204.6435-1.7573-.7548c-.0853-.0358-.1787-.0551-.2709-.0551-.0398 0-.0783.0028-.1169.0097-.4221.0742-.8195.1086-1.2127.1086-3.0333 0-5.5-1.8507-5.5-4.125s2.4667-4.125 5.5-4.125c3.0332 0 5.5 1.8507 5.5 4.125 0 1.2815-.7975 2.4736-2.189 3.2698z"/><path d="m5.52738 5.5h-.01375c-.3795 0-.68062.308-.68062.6875s.31487.6875.69437.6875.6875-.308.6875-.6875-.308-.6875-.6875-.6875z"/><path d="m11.0274 5.5h-.0138c-.3795 0-.6806.308-.6806.6875s.3149.6875.6944.6875.6875-.308.6875-.6875-.308-.6875-.6875-.6875z"/><path d="m13.0899 11.6875h-.0138c-.3808 0-.6806.308-.6806.6875s.3149.6875.6944.6875.6875-.308.6875-.6875-.308-.6875-.6875-.6875z"/><path d="m17.2149 11.6875h-.0138c-.3795 0-.6806.308-.6806.6875s.3163.6875.6944.6875c.3795 0 .6875-.308.6875-.6875s-.308-.6875-.6875-.6875z"/></g></svg>